<svg xmlns="http://www.w3.org/2000/svg" xmlns:xlink="http://www.w3.org/1999/xlink" id="Group_5762" data-name="Group 5762" width="69.623" height="66.277" viewBox="0 0 69.623 66.277"><defs><clipPath id="clip-path"><rect id="Rectangle_22855" data-name="Rectangle 22855" width="69.623" height="66.277" fill="#4b93bc"></rect></clipPath></defs><g id="Group_5762-2" data-name="Group 5762" clip-path="url(#clip-path)"><path id="Path_3378" data-name="Path 3378" d="M77.826,79.181c-3.827,0-5.934,2.159-5.934,6.08v18.49c0,3.918,2.107,6.075,5.934,6.075,3.8,0,5.887-2.157,5.887-6.075v-2.93H80.78v2.692c0,3.129-1.606,3.786-2.954,3.786-1.122,0-3.006-.492-3.006-3.786V85.5c0-3.3,1.884-3.8,3.006-3.8,1.348,0,2.954.659,2.954,3.8v2.692h2.933v-2.93c0-3.921-2.091-6.08-5.887-6.08" transform="translate(-39.55 -43.56)" fill="#4b93bc"></path><path id="Path_3379" data-name="Path 3379" d="M80.8,30.631h2.912V19.992a8.042,8.042,0,0,0-.434-2.826,3.516,3.516,0,0,0-.949-1.395,5.792,5.792,0,0,0-1.7-.866,5.293,5.293,0,0,0,2.392-1.853,5.592,5.592,0,0,0,.693-2.876V6.364C83.713,2.141,81.684,0,77.684,0H71.892V30.631H74.8V16.207h2.884c1.98,0,3.117,1.38,3.117,3.785ZM77.689,13.962H74.8V2.579h2.884c1.984,0,3.122,1.379,3.122,3.785v4.4c-.175,2.04-1.31,3.2-3.122,3.2" transform="translate(-39.55)" fill="#4b93bc"></path><path id="Path_3380" data-name="Path 3380" d="M39.952,0c-3.864,0-6.08,2.216-6.08,6.08V24.57c0,3.864,2.216,6.08,6.08,6.08s6.075-2.216,6.075-6.08V6.08c0-3.864-2.214-6.08-6.075-6.08m0,28.117c-1.983,0-3.168-1.415-3.168-3.785V6.318c0-2.374,1.185-3.79,3.168-3.79s3.168,1.417,3.168,3.79V24.332c0,2.37-1.185,3.785-3.168,3.785" transform="translate(-18.634)" fill="#4b93bc"></path><path id="Path_3381" data-name="Path 3381" d="M19.9,7.912h2.857V5.053A5.727,5.727,0,0,0,20.43,0l-2,2A2.941,2.941,0,0,1,19,2.489a4.139,4.139,0,0,1,.906,2.8Z" transform="translate(-10.138 -0.001)" fill="#4b93bc"></path><path id="Path_3382" data-name="Path 3382" d="M0,30.987v2.93c0,3.861,2.216,6.075,6.08,6.075a6.571,6.571,0,0,0,4.151-1.3A6.016,6.016,0,0,0,12.2,35.252a11.48,11.48,0,0,0,.15-3.25,9.218,9.218,0,0,0-.512-2.5,9.463,9.463,0,0,0-1.948-3.04L8.014,24.441,5.306,21.506a7.951,7.951,0,0,1-1.686-2.36,7.019,7.019,0,0,1-.49-2.129L.661,19.489c.036.117.077.242.125.378a8.456,8.456,0,0,0,1.073,1.99,10.431,10.431,0,0,0,1.028,1.215l4.577,4.957a6.752,6.752,0,0,1,2.062,5.265c0,3.629-2.165,4.17-3.456,4.17-1.484,0-3.218-.991-3.218-3.785V30.987Z" transform="translate(0 -9.362)" fill="#4b93bc"></path><path id="Path_3383" data-name="Path 3383" d="M140.611.031a4.107,4.107,0,1,0,4.107,4.107A4.113,4.113,0,0,0,140.611.031m3.54,4.107A3.54,3.54,0,1,1,140.611.6a3.544,3.544,0,0,1,3.54,3.54" transform="translate(-75.095 -0.017)" fill="#4b93bc"></path><path id="Path_3384" data-name="Path 3384" d="M143.53,7V8.712h-.7V4.433h1.21a1.973,1.973,0,0,1,1.225.309,1.124,1.124,0,0,1,.4.937,1.177,1.177,0,0,1-.831,1.14l1.211,1.894h-.8L144.228,7h-.7Zm0-.577h.486a1.114,1.114,0,0,0,.709-.182.654.654,0,0,0,.218-.537.589.589,0,0,0-.238-.521,1.289,1.289,0,0,0-.714-.157h-.461Z" transform="translate(-78.576 -2.439)" fill="#4b93bc"></path><path id="Path_3385" data-name="Path 3385" d="M6.193,100.582a10.117,10.117,0,0,1-1.353-9.9l0-.008a10.073,10.073,0,0,1,9.233-6.116,9.875,9.875,0,0,1,6.074,2.067.094.094,0,0,0,.126-.008l6.947-6.929a.1.1,0,0,0,0-.135l-.345-.345a.1.1,0,0,0-.119-.013l-6.734,4.331a.1.1,0,0,1-.1,0,12.439,12.439,0,0,0-15.519,18.8.1.1,0,0,0,.143.007l1.634-1.634a.1.1,0,0,0,.008-.126" transform="translate(-0.902 -43.56)" fill="#4b93bc"></path><path id="Path_3386" data-name="Path 3386" d="M21.057,97.566a10.117,10.117,0,0,1,1.353,9.9l0,.008a10.073,10.073,0,0,1-9.233,6.116A9.875,9.875,0,0,1,7.1,111.523a.094.094,0,0,0-.126.008L.028,118.46a.1.1,0,0,0,0,.135l.345.345a.1.1,0,0,0,.119.013l6.734-4.331a.1.1,0,0,1,.1,0,12.439,12.439,0,0,0,15.519-18.8.1.1,0,0,0-.143-.007l-1.634,1.634a.1.1,0,0,0-.008.126" transform="translate(0 -52.691)" fill="#4b93bc"></path><path id="Path_3387" data-name="Path 3387" d="M25.436,109.4a7.463,7.463,0,1,1,0-10.554,7.463,7.463,0,0,1,0,10.554" transform="translate(-6.985 -53.178)" fill="#4b93bc"></path><path id="Path_3388" data-name="Path 3388" d="M110.065,0c-3.864,0-6.08,2.216-6.08,6.08V24.57c0,3.864,2.216,6.08,6.08,6.08s6.075-2.216,6.075-6.08V6.08c0-3.864-2.214-6.08-6.075-6.08m0,28.117c-1.983,0-3.168-1.415-3.168-3.785V6.318c0-2.374,1.185-3.79,3.168-3.79s3.168,1.417,3.168,3.79V24.332c0,2.37-1.185,3.785-3.168,3.785" transform="translate(-57.205)" fill="#4b93bc"></path><path id="Path_3389" data-name="Path 3389" d="M110.065,79.2c-3.864,0-6.08,2.216-6.08,6.08v18.49c0,3.864,2.216,6.08,6.08,6.08s6.075-2.216,6.075-6.08V85.276c0-3.864-2.214-6.08-6.075-6.08m0,28.117c-1.983,0-3.168-1.415-3.168-3.785V85.514c0-2.374,1.185-3.79,3.168-3.79s3.168,1.417,3.168,3.79v18.014c0,2.37-1.185,3.785-3.168,3.785" transform="translate(-57.205 -43.568)" fill="#4b93bc"></path></g></svg>